# xmcd CD database file
#
# Track frame offsets:
#	150
#	11020
#	21637
#	35400
#	55950
#	69562
#	91125
#	102150
#	121687
#	136012
#	147487
#	159305
#	177770
#	195017
#	215230
#	229803
#	243570
#	252087
#
# Disc length: 3534 seconds
#
# Revision: 1
# Processed by: cddbd v1.5.2PL0 Copyright (c) Steve Scherf et al.
# Submitted via: CDex 1.70beta2
#
DISCID=f20dcc12
DTITLE=James King - Gardens in the Sky
DYEAR=2008
DGENRE=Bluegrass
TTITLE0=Will He Wait a Little Longer
TTITLE1=The Darkest Hour is Just Before Dawn
TTITLE2=I Just Steal Away and Pray
TTITLE3=Daddy Doesn't Pray Anymore
TTITLE4=Garden in the Sky
TTITLE5=Jerusalem Tomorrow
TTITLE6=It's Hot Down Here
TTITLE7=Sweeter than the Flowers
TTITLE8=Don't Worry Mama
TTITLE9=The Touch of God's Hand
TTITLE10=These Old Pictures
TTITLE11=Just as the Sun Went Down
TTITLE12=Message for Peace
TTITLE13=Angels Are Singing in Heaven Tonight
TTITLE14=The Prettiest Flowers Will Be Blooming
TTITLE15=Voice of My Saviour
TTITLE16=Will You Feel at Home
TTITLE17=Happy I'll Be
EXTD=YEAR: 2008
EXTT0=
EXTT1=
EXTT2=
EXTT3=
EXTT4=
EXTT5=
EXTT6=
EXTT7=
EXTT8=
EXTT9=
EXTT10=
EXTT11=
EXTT12=
EXTT13=
EXTT14=
EXTT15=
EXTT16=
EXTT17=
PLAYORDER=
